<svg width="1200" height="420" viewBox="0 0 1200 420" fill="none" xmlns="http://www.w3.org/2000/svg">
  <defs>
    <linearGradient id="bg" x1="0" y1="0" x2="1200" y2="420" gradientUnits="userSpaceOnUse">
      <stop offset="0" stop-color="#05070D"/>
      <stop offset="0.45" stop-color="#0A1120"/>
      <stop offset="1" stop-color="#060913"/>
    </linearGradient>
    <radialGradient id="cyanGlow" cx="0" cy="0" r="1" gradientUnits="userSpaceOnUse" gradientTransform="translate(248 120) rotate(22) scale(420 280)">
      <stop stop-color="#45E6FF" stop-opacity="0.26"/>
      <stop offset="1" stop-color="#45E6FF" stop-opacity="0"/>
    </radialGradient>
    <radialGradient id="cyanCore" cx="0" cy="0" r="1" gradientUnits="userSpaceOnUse" gradientTransform="translate(932 194) rotate(90) scale(164)">
      <stop stop-color="#45E6FF" stop-opacity="0.34"/>
      <stop offset="0.58" stop-color="#45E6FF" stop-opacity="0.08"/>
      <stop offset="1" stop-color="#45E6FF" stop-opacity="0"/>
    </radialGradient>
    <linearGradient id="accentLine" x1="84" y1="0" x2="260" y2="0" gradientUnits="userSpaceOnUse">
      <stop stop-color="#45E6FF"/>
      <stop offset="1" stop-color="#8CF2FF"/>
    </linearGradient>
    <linearGradient id="signalStroke" x1="718" y1="136" x2="1124" y2="244" gradientUnits="userSpaceOnUse">
      <stop stop-color="#45E6FF"/>
      <stop offset="1" stop-color="#7DEBFF"/>
    </linearGradient>
    <linearGradient id="pulseStroke" x1="734" y1="292" x2="1108" y2="292" gradientUnits="userSpaceOnUse">
      <stop stop-color="#3CC5DB"/>
      <stop offset="1" stop-color="#45E6FF"/>
    </linearGradient>
  </defs>

  <rect width="1200" height="420" rx="30" fill="url(#bg)"/>
  <rect x="18" y="18" width="1164" height="384" rx="22" stroke="#162338" stroke-width="1.5"/>
  <rect x="36" y="36" width="1128" height="348" rx="18" stroke="#0E1727" stroke-width="1"/>

  <g opacity="0.7">
    <path d="M0 56H1200" stroke="#101B2D" stroke-width="1"/>
    <path d="M0 122H1200" stroke="#101B2D" stroke-width="1"/>
    <path d="M0 188H1200" stroke="#101B2D" stroke-width="1"/>
    <path d="M0 254H1200" stroke="#101B2D" stroke-width="1"/>
    <path d="M0 320H1200" stroke="#101B2D" stroke-width="1"/>
    <path d="M94 0V420" stroke="#101B2D" stroke-width="1"/>
    <path d="M226 0V420" stroke="#101B2D" stroke-width="1"/>
    <path d="M358 0V420" stroke="#101B2D" stroke-width="1"/>
    <path d="M490 0V420" stroke="#101B2D" stroke-width="1"/>
    <path d="M622 0V420" stroke="#101B2D" stroke-width="1"/>
    <path d="M754 0V420" stroke="#101B2D" stroke-width="1"/>
    <path d="M886 0V420" stroke="#101B2D" stroke-width="1"/>
    <path d="M1018 0V420" stroke="#101B2D" stroke-width="1"/>
    <path d="M1150 0V420" stroke="#101B2D" stroke-width="1"/>
  </g>

  <circle cx="248" cy="120" r="260" fill="url(#cyanGlow)"/>
  <circle cx="932" cy="194" r="182" fill="url(#cyanCore)"/>

  <g opacity="0.92">
    <rect x="76" y="74" width="242" height="30" rx="15" fill="#0A1423" stroke="#1D314A"/>
    <text x="97" y="94" fill="#9CF4FF" font-family="Segoe UI, Arial, sans-serif" font-size="12" font-weight="700" letter-spacing="2.4">SIGNALS / MODELS / STORIES</text>
  </g>

  <text x="74" y="164" fill="#F8FBFF" font-family="Segoe UI, Arial, sans-serif" font-size="60" font-weight="800" letter-spacing="5.2">RITUPARNA GOGOI</text>
  <text x="78" y="208" fill="#A8C8E8" font-family="Segoe UI, Arial, sans-serif" font-size="22" font-weight="700" letter-spacing="1.6">TRACING PATTERNS THROUGH NOISE</text>
  <path d="M78 232H258" stroke="url(#accentLine)" stroke-width="3" stroke-linecap="round"/>
  <circle cx="278" cy="232" r="4" fill="#45E6FF"/>
  <circle cx="296" cy="232" r="4" fill="#7DEBFF" fill-opacity="0.72"/>

  <text x="78" y="278" fill="#D8F7FF" font-family="Segoe UI, Arial, sans-serif" font-size="18" font-weight="600">Curious experiments, machine learning, and visual stories built in public.</text>
  <text x="78" y="310" fill="#86A6C7" font-family="Segoe UI, Arial, sans-serif" font-size="16">Code / models / notebooks / cleaner explanations / sharper projects</text>

  <g opacity="0.95">
    <rect x="78" y="336" width="170" height="32" rx="16" fill="#09111D" stroke="#223852"/>
    <text x="103" y="357" fill="#A6F6FF" font-family="Segoe UI, Arial, sans-serif" font-size="13" font-weight="700" letter-spacing="1.8">PUBLIC BUILD LOG</text>
    <rect x="260" y="336" width="132" height="32" rx="16" fill="#09111D" stroke="#223852"/>
    <text x="286" y="357" fill="#D8F7FF" font-family="Segoe UI, Arial, sans-serif" font-size="13" font-weight="700" letter-spacing="1.2">@raj369-3</text>
  </g>

  <g opacity="0.54">
    <circle cx="934" cy="194" r="124" stroke="#18314A" stroke-width="1.2"/>
    <circle cx="934" cy="194" r="88" stroke="#18314A" stroke-width="1.2"/>
    <circle cx="934" cy="194" r="52" stroke="#26435E" stroke-width="1.2"/>
    <path d="M760 194H1110" stroke="#18314A" stroke-width="1.2"/>
    <path d="M934 62V328" stroke="#18314A" stroke-width="1.2"/>
  </g>

  <g opacity="0.96">
    <path d="M716 252L778 238L842 172L908 192L970 130L1038 152L1100 104" stroke="url(#signalStroke)" stroke-width="3.8" stroke-linecap="round" stroke-linejoin="round"/>
    <circle cx="716" cy="252" r="5" fill="#45E6FF"/>
    <circle cx="778" cy="238" r="5" fill="#7DEBFF"/>
    <circle cx="842" cy="172" r="5" fill="#45E6FF"/>
    <circle cx="908" cy="192" r="5" fill="#7DEBFF"/>
    <circle cx="970" cy="130" r="5" fill="#45E6FF"/>
    <circle cx="1038" cy="152" r="5" fill="#7DEBFF"/>
    <circle cx="1100" cy="104" r="5" fill="#45E6FF"/>
  </g>

  <g opacity="0.9">
    <path d="M734 296H778L796 274L824 316L852 266L884 308L916 224L946 246L978 204L1006 230L1034 176L1066 210L1106 160" stroke="url(#pulseStroke)" stroke-width="2.8" stroke-linecap="round" stroke-linejoin="round"/>
  </g>

  <g opacity="0.92">
    <rect x="748" y="286" width="24" height="40" rx="6" fill="#122031"/>
    <rect x="786" y="254" width="24" height="72" rx="6" fill="#16304A"/>
    <rect x="824" y="226" width="24" height="100" rx="6" fill="#1B415F"/>
    <rect x="862" y="202" width="24" height="124" rx="6" fill="#1F5378"/>
    <rect x="900" y="174" width="24" height="152" rx="6" fill="#246992"/>
    <rect x="938" y="214" width="24" height="112" rx="6" fill="#2A7BAA"/>
  </g>

  <g opacity="0.85">
    <circle cx="934" cy="194" r="14" fill="#45E6FF" fill-opacity="0.18"/>
    <circle cx="934" cy="194" r="6" fill="#C6FBFF"/>
    <circle cx="842" cy="172" r="12" fill="#45E6FF" fill-opacity="0.12"/>
    <circle cx="970" cy="130" r="12" fill="#45E6FF" fill-opacity="0.12"/>
    <circle cx="1034" cy="176" r="10" fill="#45E6FF" fill-opacity="0.1"/>
  </g>

  <g opacity="0.74">
    <path d="M760 98C794 84 830 84 862 102" stroke="#1E3B58" stroke-width="1.2" stroke-linecap="round"/>
    <path d="M1006 252C1030 274 1062 284 1094 280" stroke="#1E3B58" stroke-width="1.2" stroke-linecap="round"/>
    <text x="768" y="92" fill="#6E8CA8" font-family="Segoe UI, Arial, sans-serif" font-size="11" font-weight="700" letter-spacing="1.6">SIGNAL MAP</text>
    <text x="1014" y="296" fill="#6E8CA8" font-family="Segoe UI, Arial, sans-serif" font-size="11" font-weight="700" letter-spacing="1.6">ACTIVE CLUSTERS</text>
  </g>

  <g opacity="0.46">
    <circle cx="120" cy="54" r="1.6" fill="#D8F7FF"/>
    <circle cx="320" cy="66" r="1.6" fill="#D8F7FF"/>
    <circle cx="1128" cy="84" r="1.6" fill="#D8F7FF"/>
    <circle cx="1072" cy="334" r="1.6" fill="#D8F7FF"/>
    <circle cx="964" cy="362" r="1.6" fill="#D8F7FF"/>
  </g>
</svg>
